HIERARCHY
ROOT hips
{
	OFFSET -0.003675 0.299928 -0.021708
	CHANNELS 6 Xposition Yposition Zposition Xrotation Yrotation Zrotation
	JOINT LowerBack
	{
		OFFSET 0.000919 0.177588 0.009275
		CHANNELS 3 Xrotation Yrotation Zrotation
		JOINT spine
		{
			OFFSET 0.000919 0.177588 0.009275
			CHANNELS 3 Xrotation Yrotation Zrotation
			JOINT chest
			{
				OFFSET 0.000456 0.100015 0.004638
				CHANNELS 3 Xrotation Yrotation Zrotation
				JOINT neck
				{
					OFFSET 0.000456 0.100015 0.004638
					CHANNELS 3 Xrotation Yrotation Zrotation
					JOINT head
					{
						OFFSET 0.000924 0.155147 0.009274
						CHANNELS 6 Xposition Yposition Zposition Xrotation Yrotation Zrotation
						End Site
						{
							OFFSET 0.000000 0.153400 0.000000
						}
					}
				}
				JOINT shoulder.L
				{
					OFFSET 0.019937 0.078966 0.057518
					CHANNELS 6 Xposition Yposition Zposition Yrotation Xrotation Zrotation
					JOINT upper_arm.L
					{
						OFFSET 0.177024 -0.020465 -0.095062
						CHANNELS 6 Xposition Yposition Zposition Xrotation Yrotation Zrotation
						JOINT forearm.L
						{
							OFFSET 0.247100 -0.135500 -0.061800
							CHANNELS 3 Xrotation Yrotation Zrotation
							JOINT hand.L
							{
								OFFSET 0.217000 -0.143000 0.039300
								CHANNELS 3 Xrotation Yrotation Zrotation
								JOINT palm.01.L
								{
									OFFSET 0.021770 -0.038291 0.012954
									CHANNELS 6 Xposition Yposition Zposition Yrotation Xrotation Zrotation
									JOINT f_index.01.L
									{
										OFFSET 0.053215 -0.044137 0.008236
										CHANNELS 3 Xrotation Yrotation Zrotation
										JOINT f_index.02.L
										{
											OFFSET 0.036108 -0.024723 -0.010656
											CHANNELS 3 Xrotation Yrotation Zrotation
											JOINT f_index.03.L
											{
												OFFSET 0.021342 -0.014948 -0.010846
												CHANNELS 3 Xrotation Yrotation Zrotation
												End Site
												{
													OFFSET 0.015600 -0.009860 -0.013421
												}
											}
										}
									}
									JOINT thumb.01.L
									{
										OFFSET -0.009090 -0.002348 -0.024223
										CHANNELS 6 Xposition Yposition Zposition Xrotation Yrotation Zrotation
										JOINT thumb.02.L
										{
											OFFSET 0.019713 -0.035076 -0.011120
											CHANNELS 3 Xrotation Yrotation Zrotation
											JOINT thumb.03.L
											{
												OFFSET 0.024877 -0.021748 -0.005176
												CHANNELS 3 Xrotation Yrotation Zrotation
												End Site
												{
													OFFSET 0.016125 -0.013029 -0.001569
												}
											}
										}
									}
								}
								JOINT palm.02.L
								{
									OFFSET 0.032823 -0.025104 0.012281
									CHANNELS 6 Xposition Yposition Zposition Yrotation Xrotation Zrotation
									JOINT f_middle.01.L
									{
										OFFSET 0.055723 -0.038469 0.008037
										CHANNELS 3 Xrotation Yrotation Zrotation
										JOINT f_middle.02.L
										{
											OFFSET 0.038167 -0.027473 -0.015582
											CHANNELS 3 Xrotation Yrotation Zrotation
											JOINT f_middle.03.L
											{
												OFFSET 0.021707 -0.016587 -0.017037
												CHANNELS 3 Xrotation Yrotation Zrotation
												End Site
												{
													OFFSET 0.014112 -0.010584 -0.014294
												}
											}
										}
									}
								}
								JOINT palm.03.L
								{
									OFFSET 0.039230 -0.011402 0.008390
									CHANNELS 6 Xposition Yposition Zposition Yrotation Xrotation Zrotation
									JOINT f_ring.01.L
									{
										OFFSET 0.061796 -0.031470 0.007910
										CHANNELS 3 Xrotation Yrotation Zrotation
										JOINT f_ring.02.L
										{
											OFFSET 0.033092 -0.023401 -0.019127
											CHANNELS 3 Xrotation Yrotation Zrotation
											JOINT f_ring.03.L
											{
												OFFSET 0.021392 -0.015362 -0.017824
												CHANNELS 3 Xrotation Yrotation Zrotation
												End Site
												{
													OFFSET 0.008670 -0.007297 -0.014686
												}
											}
										}
									}
								}
								JOINT palm.04.L
								{
									OFFSET 0.043417 0.002450 0.002889
									CHANNELS 6 Xposition Yposition Zposition Yrotation Xrotation Zrotation
									JOINT f_pinky.01.L
									{
										OFFSET 0.069986 -0.026156 0.003627
										CHANNELS 3 Xrotation Yrotation Zrotation
										JOINT f_pinky.02.L
										{
											OFFSET 0.018520 -0.012813 -0.016429
											CHANNELS 3 Xrotation Yrotation Zrotation
											JOINT f_pinky.03.L
											{
												OFFSET 0.013822 -0.009796 -0.014947
												CHANNELS 3 Xrotation Yrotation Zrotation
												End Site
												{
													OFFSET 0.007238 -0.006103 -0.011657
												}
											}
										}
									}
								}
							}
						}
					}
				}
				JOINT shoulder.R
				{
					OFFSET -0.016662 0.078957 0.057696
					CHANNELS 6 Xposition Yposition Zposition Yrotation Xrotation Zrotation
					JOINT upper_arm.R
					{
						OFFSET -0.176972 -0.020537 -0.095144
						CHANNELS 6 Xposition Yposition Zposition Xrotation Yrotation Zrotation
						JOINT forearm.R
						{
							OFFSET -0.247100 -0.135500 -0.061800
							CHANNELS 3 Xrotation Yrotation Zrotation
							JOINT hand.R
							{
								OFFSET -0.217000 -0.143000 0.039300
								CHANNELS 3 Xrotation Yrotation Zrotation
								JOINT palm.01.R
								{
									OFFSET -0.021773 -0.038278 0.012988
									CHANNELS 6 Xposition Yposition Zposition Yrotation Xrotation Zrotation
									JOINT f_index.01.R
									{
										OFFSET -0.053212 -0.044139 0.008249
										CHANNELS 3 Xrotation Yrotation Zrotation
										JOINT f_index.02.R
										{
											OFFSET -0.036049 -0.024835 -0.010634
											CHANNELS 3 Xrotation Yrotation Zrotation
											JOINT f_index.03.R
											{
												OFFSET -0.021371 -0.014881 -0.010866
												CHANNELS 3 Xrotation Yrotation Zrotation
												End Site
												{
													OFFSET -0.015584 -0.009883 -0.013422
												}
											}
										}
									}
									JOINT thumb.01.R
									{
										OFFSET 0.009113 -0.002381 -0.024211
										CHANNELS 6 Xposition Yposition Zposition Xrotation Yrotation Zrotation
										JOINT thumb.02.R
										{
											OFFSET -0.019694 -0.035097 -0.011088
											CHANNELS 3 Xrotation Yrotation Zrotation
											JOINT thumb.03.R
											{
												OFFSET -0.024867 -0.021762 -0.005168
												CHANNELS 3 Xrotation Yrotation Zrotation
												End Site
												{
													OFFSET -0.016120 -0.013036 -0.001565
												}
											}
										}
									}
								}
								JOINT palm.02.R
								{
									OFFSET -0.032828 -0.025095 0.012286
									CHANNELS 6 Xposition Yposition Zposition Yrotation Xrotation Zrotation
									JOINT f_middle.01.R
									{
										OFFSET -0.055721 -0.038472 0.008040
										CHANNELS 3 Xrotation Yrotation Zrotation
										JOINT f_middle.02.R
										{
											OFFSET -0.038101 -0.027593 -0.015557
											CHANNELS 3 Xrotation Yrotation Zrotation
											JOINT f_middle.03.R
											{
												OFFSET -0.021730 -0.016530 -0.017054
												CHANNELS 3 Xrotation Yrotation Zrotation
												End Site
												{
													OFFSET -0.014096 -0.010608 -0.014293
												}
											}
										}
									}
								}
								JOINT palm.03.R
								{
									OFFSET -0.039192 -0.011488 0.008390
									CHANNELS 6 Xposition Yposition Zposition Yrotation Xrotation Zrotation
									JOINT f_ring.01.R
									{
										OFFSET -0.061839 -0.031387 0.007876
										CHANNELS 3 Xrotation Yrotation Zrotation
										JOINT f_ring.02.R
										{
											OFFSET -0.033068 -0.023437 -0.019125
											CHANNELS 3 Xrotation Yrotation Zrotation
											JOINT f_ring.03.R
											{
												OFFSET -0.021371 -0.015393 -0.017822
												CHANNELS 3 Xrotation Yrotation Zrotation
												End Site
												{
													OFFSET -0.008654 -0.007321 -0.014684
												}
											}
										}
									}
								}
								JOINT palm.04.R
								{
									OFFSET -0.043421 0.002443 0.002845
									CHANNELS 6 Xposition Yposition Zposition Yrotation Xrotation Zrotation
									JOINT f_pinky.01.R
									{
										OFFSET -0.069983 -0.026169 0.003599
										CHANNELS 3 Xrotation Yrotation Zrotation
										JOINT f_pinky.02.R
										{
											OFFSET -0.018501 -0.012842 -0.016428
											CHANNELS 3 Xrotation Yrotation Zrotation
											JOINT f_pinky.03.R
											{
												OFFSET -0.013806 -0.009821 -0.014946
												CHANNELS 3 Xrotation Yrotation Zrotation
												End Site
												{
													OFFSET -0.007226 -0.006121 -0.011655
												}
											}
										}
									}
								}
							}
						}
					}
				}
			}
		}
	}
	JOINT pelvis.L
	{
		OFFSET 0.000000 0.000000 0.000000
		CHANNELS 6 Xposition Yposition Zposition Xrotation Yrotation Zrotation
		JOINT thigh.L
		{
			OFFSET 0.101675 0.001054 -0.000000
			CHANNELS 3 Xrotation Yrotation Zrotation
			JOINT shin.L
			{
				OFFSET 0.000000 -0.534800 0.041000
				CHANNELS 3 Xrotation Yrotation Zrotation
				JOINT foot.L
				{
					OFFSET 0.000000 -0.452000 -0.044800
					CHANNELS 3 Xrotation Yrotation Zrotation
					JOINT toe.L
					{
						OFFSET -0.000000 -0.068500 0.109600
						CHANNELS 3 Xrotation Yrotation Zrotation
						End Site
						{
							OFFSET -0.000000 0.000000 0.067200
						}
					}
				}
				JOINT heel.L
				{
					OFFSET 0.000000 -0.452000 -0.044800
					CHANNELS 3 Xrotation Yrotation Zrotation
					JOINT heel.02.L
					{
						OFFSET -0.038000 -0.085200 0.016200
						CHANNELS 6 Xposition Yposition Zposition Xrotation Yrotation Zrotation
						End Site
						{
							OFFSET 0.080000 -0.000000 0.000000
						}
					}
				}
			}
		}
	}
	JOINT pelvis.R
	{
		OFFSET 0.000000 0.000000 0.000000
		CHANNELS 6 Xposition Yposition Zposition Xrotation Yrotation Zrotation
		JOINT thigh.R
		{
			OFFSET -0.094325 0.001054 0.000000
			CHANNELS 3 Xrotation Yrotation Zrotation
			JOINT shin.R
			{
				OFFSET 0.000000 -0.534800 0.041000
				CHANNELS 3 Xrotation Yrotation Zrotation
				JOINT foot.R
				{
					OFFSET 0.000000 -0.452000 -0.044800
					CHANNELS 3 Xrotation Yrotation Zrotation
					JOINT toe.R
					{
						OFFSET -0.000000 -0.068500 0.109600
						CHANNELS 3 Xrotation Yrotation Zrotation
						End Site
						{
							OFFSET -0.000000 0.000000 0.067200
						}
					}
				}
				JOINT heel.R
				{
					OFFSET 0.000000 -0.452000 -0.044800
					CHANNELS 3 Xrotation Yrotation Zrotation
					JOINT heel.02.R
					{
						OFFSET 0.038000 -0.085200 0.016200
						CHANNELS 6 Xposition Yposition Zposition Xrotation Yrotation Zrotation
						End Site
						{
							OFFSET -0.080000 0.000000 -0.000000
						}
					}
				}
			}
		}
	}
}
MOTION
Frames: 4
Frame Time: 0.041667
-0.000710 0.213282 0.006161 34.235968 15.274057 96.415661 0.000002 0.000000 -0.000001 0.000001 0.000005 -0.000000 -0.000001 0.000003 0.000000 -0.000002 -0.000000 0.000001 0.000924 0.155147 0.009274 -3.743769 0.014728 -4.247717 0.019937 0.078966 0.057518 -42.768869 13.219963 57.823535 0.177025 -0.020465 -0.095062 -59.199012 43.956208 -76.804999 -49.734548 -16.991448 -40.257897 0.000002 -0.000001 -0.000004 0.021770 -0.038291 0.012954 0.000003 -0.000001 -0.000001 -0.000003 -0.000000 0.000003 0.000002 -0.000002 0.000008 -0.000001 0.000001 -0.000002 -0.009090 -0.002348 -0.024224 -0.000003 -0.000000 -0.000001 0.000003 -0.000000 0.000005 -0.000001 -0.000002 -0.000002 0.032823 -0.025104 0.012281 0.000001 -0.000001 0.000000 0.000001 0.000001 -0.000003 -0.000001 -0.000002 0.000003 -0.000001 0.000003 0.000001 0.039230 -0.011402 0.008390 0.000002 -0.000000 0.000006 0.000006 -0.000002 -0.000000 -0.000001 0.000006 -0.000000 -0.000001 0.000000 0.000003 0.043417 0.002450 0.002889 0.000003 -0.000004 -0.000002 -0.000001 -0.000009 -0.000002 -0.000002 0.000003 -0.000000 0.000004 0.000003 0.000000 -0.016662 0.078957 0.057696 -35.474196 12.534599 -35.048986 -0.176972 -0.020537 -0.095144 -54.108820 -14.066329 55.894327 -54.547421 10.173067 49.712292 0.000001 0.000002 0.000002 -0.021773 -0.038278 0.012988 -0.000002 -0.000001 0.000000 -0.000001 0.000004 -0.000004 0.000000 -0.000002 -0.000006 0.000005 0.000003 -0.000002 0.009114 -0.002381 -0.024212 0.000001 -0.000001 0.000001 -0.000000 -0.000002 -0.000003 0.000000 0.000001 0.000003 -0.032828 -0.025095 0.012286 0.000000 -0.000001 -0.000003 -0.000001 0.000001 -0.000003 0.000002 -0.000002 -0.000004 -0.000000 0.000003 -0.000006 -0.039192 -0.011488 0.008390 -0.000002 0.000002 -0.000000 0.000001 0.000004 0.000002 0.000001 -0.000003 0.000003 0.000002 -0.000003 0.000001 -0.043421 0.002443 0.002844 -0.000001 0.000000 -0.000001 -0.000002 0.000003 -0.000002 -0.000004 -0.000000 -0.000002 0.000002 -0.000003 -0.000002 -0.000000 0.000000 -0.000000 -1.585147 1.051056 -13.903099 26.120559 -1.061130 -15.155695 12.465184 0.655348 -6.625073 -0.000002 -0.000003 -0.000001 -0.000004 0.000002 -0.000000 0.000003 -0.000004 -0.000002 -0.038000 -0.085200 0.016200 0.000002 0.000000 0.000001 -0.000000 0.000000 -0.000000 -1.517338 1.035013 -12.670147 21.834868 0.152167 3.128140 14.980336 2.224512 -23.073371 0.000005 -0.000001 -0.000001 0.000000 -0.000003 0.000000 0.000007 -0.000001 -0.000001 0.038000 -0.085200 0.016200 -0.000001 -0.000001 -0.000000 
-0.005406 0.211565 0.000801 66.712473 16.891825 84.711168 0.000001 -0.000002 -0.000001 0.000001 -0.000001 -0.000000 -0.000001 -0.000001 -0.000001 -0.000002 -0.000001 -0.000000 0.000924 0.155147 0.009274 -6.758734 0.023199 5.633062 0.019937 0.078966 0.057518 -14.972589 6.706252 46.725471 0.177024 -0.020466 -0.095062 -51.784261 31.778504 -73.544260 -22.171795 -15.754759 -23.764737 -0.000000 0.000003 0.000002 0.021770 -0.038291 0.012954 0.000001 -0.000003 0.000001 0.000001 0.000003 -0.000000 -0.000001 -0.000004 0.000003 -0.000003 0.000007 -0.000000 -0.009090 -0.002348 -0.024224 0.000001 0.000000 -0.000003 -0.000002 0.000001 0.000005 -0.000000 0.000000 -0.000002 0.032823 -0.025104 0.012281 0.000000 -0.000000 0.000007 -0.000003 0.000001 -0.000003 -0.000003 0.000006 0.000000 0.000002 0.000001 0.000003 0.039230 -0.011402 0.008390 0.000000 -0.000000 0.000006 0.000003 0.000000 0.000001 -0.000000 0.000005 0.000001 0.000004 0.000004 0.000005 0.043417 0.002450 0.002889 -0.000003 -0.000001 0.000000 -0.000002 -0.000008 0.000002 0.000002 0.000000 0.000001 0.000001 0.000000 -0.000003 -0.016662 0.078957 0.057696 -8.674868 6.195502 -36.877038 -0.176972 -0.020537 -0.095144 -42.962542 -17.121073 60.526848 -45.858614 1.853654 61.226137 -0.000001 -0.000001 0.000004 -0.021773 -0.038278 0.012988 -0.000004 0.000001 -0.000002 -0.000003 -0.000000 0.000002 -0.000002 -0.000002 -0.000001 -0.000006 0.000002 0.000003 0.009114 -0.002381 -0.024211 0.000000 -0.000006 0.000002 0.000002 -0.000005 0.000000 -0.000000 -0.000005 0.000003 -0.032828 -0.025095 0.012286 -0.000002 0.000001 0.000001 -0.000001 0.000000 0.000001 0.000001 -0.000006 0.000001 -0.000002 0.000000 -0.000008 -0.039192 -0.011488 0.008390 -0.000004 0.000001 0.000003 -0.000002 0.000004 -0.000002 0.000002 0.000003 -0.000000 0.000005 -0.000002 0.000004 -0.043421 0.002443 0.002844 -0.000000 0.000003 0.000002 -0.000005 0.000004 -0.000004 0.000007 -0.000006 0.000002 0.000002 -0.000003 -0.000002 0.000000 0.000000 0.000000 -1.684997 1.575724 -19.548809 11.383349 -1.359114 -18.432802 4.287165 0.796278 -8.058931 0.000000 0.000002 -0.000002 0.000001 -0.000006 -0.000002 0.000002 -0.000002 -0.000004 -0.038000 -0.085200 0.016200 0.000002 -0.000001 -0.000004 0.000000 -0.000000 0.000000 -1.595743 1.545074 -18.317053 4.347243 0.215384 2.774961 10.791738 2.625797 -27.561453 -0.000003 -0.000002 -0.000002 -0.000001 -0.000001 -0.000001 0.000003 -0.000002 0.000000 0.038000 -0.085200 0.016200 -0.000002 0.000004 0.000003 
-0.005737 0.213540 0.000715 66.273968 18.608398 85.017434 0.000000 0.000001 -0.000001 -0.000001 0.000003 -0.000001 0.000000 -0.000001 -0.000002 0.000001 -0.000000 0.000002 0.000924 0.155147 0.009274 -9.725301 0.031958 6.309788 0.019937 0.078966 0.057518 -13.343594 6.343118 44.724891 0.177025 -0.020465 -0.095062 -39.958785 26.397231 -76.743268 -24.701987 -16.821243 -25.217521 -0.000002 -0.000001 -0.000000 0.021770 -0.038291 0.012954 0.000000 -0.000000 0.000005 -0.000006 0.000000 -0.000002 0.000001 -0.000001 0.000001 -0.000001 0.000002 0.000002 -0.009090 -0.002348 -0.024224 -0.000004 -0.000002 -0.000001 -0.000000 0.000001 -0.000000 -0.000001 0.000001 -0.000001 0.032823 -0.025104 0.012281 -0.000002 0.000001 0.000007 -0.000001 0.000006 -0.000003 -0.000005 -0.000002 0.000003 0.000003 0.000001 0.000001 0.039230 -0.011402 0.008390 0.000001 -0.000000 0.000004 0.000004 0.000000 -0.000000 0.000004 0.000003 -0.000001 0.000003 -0.000001 0.000005 0.043417 0.002450 0.002889 -0.000001 0.000001 -0.000000 0.000003 -0.000003 -0.000002 -0.000001 -0.000002 0.000003 -0.000001 -0.000001 0.000000 -0.016662 0.078957 0.057696 -7.411453 6.340494 -37.889969 -0.176972 -0.020537 -0.095144 -38.324902 -16.958318 61.854849 -38.697349 4.366252 59.160203 0.000001 -0.000004 0.000001 -0.021773 -0.038278 0.012988 0.000001 -0.000000 0.000002 -0.000002 0.000002 -0.000005 0.000003 0.000001 -0.000006 -0.000003 0.000000 0.000003 0.009114 -0.002381 -0.024211 -0.000001 -0.000003 -0.000001 -0.000001 -0.000002 -0.000001 0.000001 0.000001 -0.000004 -0.032828 -0.025095 0.012286 0.000002 0.000001 -0.000001 -0.000000 0.000002 0.000001 -0.000001 0.000003 0.000001 -0.000004 0.000003 -0.000008 -0.039192 -0.011488 0.008390 -0.000003 0.000000 0.000001 0.000000 -0.000003 0.000004 0.000001 -0.000000 -0.000000 -0.000000 0.000002 -0.000003 -0.043421 0.002443 0.002845 -0.000001 -0.000001 0.000000 -0.000003 0.000003 -0.000002 0.000002 -0.000004 -0.000000 0.000001 0.000003 -0.000003 0.000000 0.000000 0.000000 -1.663383 1.565392 -19.517462 7.288835 -1.542015 -20.719094 6.686692 0.720975 -7.292110 -0.000002 -0.000005 -0.000005 0.000002 0.000002 -0.000002 0.000003 -0.000002 -0.000002 -0.038000 -0.085200 0.016200 -0.000001 0.000001 -0.000004 0.000000 0.000000 0.000000 -1.575217 1.535175 -18.285666 -1.100261 0.117129 1.103032 15.433770 2.395812 -24.968590 0.000002 0.000001 0.000001 0.000004 0.000004 0.000002 0.000005 -0.000000 -0.000003 0.038000 -0.085200 0.016200 -0.000002 0.000001 -0.000003 
-0.005305 0.213056 0.000753 65.624676 19.159796 85.145125 0.000002 0.000002 -0.000001 0.000003 -0.000000 -0.000000 0.000000 -0.000000 -0.000001 0.000005 0.000003 -0.000001 0.000924 0.155148 0.009274 -11.870938 0.040487 3.473489 0.019937 0.078966 0.057518 -13.844913 6.545554 45.463238 0.177024 -0.020465 -0.095062 -39.748747 25.895038 -75.870534 -27.260709 -19.513603 -22.933665 -0.000000 0.000000 -0.000002 0.021770 -0.038291 0.012954 0.000000 -0.000001 -0.000002 -0.000003 -0.000003 0.000003 0.000001 -0.000000 0.000007 0.000003 0.000003 -0.000002 -0.009090 -0.002348 -0.024224 -0.000000 -0.000003 0.000004 -0.000004 -0.000006 0.000008 -0.000000 0.000001 -0.000002 0.032823 -0.025104 0.012281 -0.000003 0.000003 0.000007 -0.000001 0.000004 -0.000005 -0.000002 -0.000003 0.000001 0.000000 -0.000000 0.000000 0.039230 -0.011402 0.008390 0.000000 0.000000 0.000008 0.000003 0.000000 0.000001 0.000002 0.000008 0.000006 -0.000001 0.000002 0.000002 0.043417 0.002450 0.002889 -0.000002 -0.000002 -0.000003 0.000001 -0.000006 0.000003 -0.000004 -0.000001 -0.000001 0.000001 -0.000000 -0.000003 -0.016662 0.078957 0.057696 -8.940030 6.582045 -37.839917 -0.176972 -0.020537 -0.095144 -37.820137 -17.464340 63.168684 -45.186455 3.584640 58.818133 -0.000002 -0.000003 -0.000001 -0.021773 -0.038278 0.012988 0.000003 -0.000002 -0.000005 0.000001 0.000010 -0.000001 0.000000 -0.000003 -0.000006 -0.000002 -0.000003 -0.000000 0.009114 -0.002381 -0.024211 0.000003 0.000003 -0.000002 -0.000000 -0.000006 0.000000 0.000004 -0.000002 -0.000001 -0.032828 -0.025095 0.012286 0.000001 -0.000001 -0.000001 0.000001 0.000001 -0.000003 -0.000001 -0.000001 -0.000001 0.000002 0.000003 -0.000004 -0.039192 -0.011488 0.008390 -0.000001 -0.000000 0.000003 -0.000001 0.000008 -0.000007 0.000002 -0.000006 -0.000002 -0.000004 0.000004 -0.000000 -0.043421 0.002443 0.002844 0.000003 -0.000000 0.000002 -0.000001 0.000006 0.000001 -0.000001 -0.000003 0.000002 -0.000000 -0.000000 -0.000000 0.000000 0.000000 -0.000000 -1.659597 1.498987 -18.798291 8.206320 -1.604256 -21.647822 1.536720 0.577587 -5.835595 0.000000 0.000000 -0.000003 -0.000001 -0.000001 0.000001 0.000003 -0.000002 0.000001 -0.038000 -0.085200 0.016200 -0.000005 -0.000002 -0.000003 0.000000 0.000000 -0.000000 -1.573928 1.470819 -17.566330 -1.161230 0.136168 1.348980 13.909347 2.419746 -25.235790 0.000003 0.000000 0.000001 0.000000 -0.000000 0.000000 0.000007 0.000003 0.000002 0.038000 -0.085200 0.016200 -0.000004 -0.000001 -0.000001 
